<svg version="1.1" viewBox="0.0 0.0 960.0 720.0" fill="none" stroke="none" stroke-linecap="square" stroke-miterlimit="10" xmlns:xlink="http://www.w3.org/1999/xlink" xmlns="http://www.w3.org/2000/svg"><clipPath id="p.0"><path d="m0 0l960.0 0l0 720.0l-960.0 0l0 -720.0z" clip-rule="nonzero"/></clipPath><g clip-path="url(#p.0)"><path fill="#000000" fill-opacity="0.0" d="m0 0l960.0 0l0 720.0l-960.0 0z" fill-rule="evenodd"/><path fill="#cc0000" d="m257.3386 211.56055c0 -40.99167 33.230286 -74.22197 74.221954 -74.22197l296.8789 0c19.684875 0 38.563538 7.8197937 52.48285 21.73912c13.919312 13.919312 21.739136 32.79796 21.739136 52.48285l0 296.8789c0 40.99164 -33.230347 74.221985 -74.221985 74.221985l-296.8789 0c-40.99167 0 -74.221954 -33.230347 -74.221954 -74.221985z" fill-rule="evenodd"/><path fill="#ffffff" d="m324.2578 274.60312l68.671875 0q20.390625 0 30.40625 1.703125q10.03125 1.6875 17.9375 7.078125q7.90625 5.390625 13.171875 14.359375q5.28125 8.96875 5.28125 20.09375q0 12.078125 -6.5 22.15625q-6.5 10.078125 -17.640625 15.109375q15.703125 4.578125 24.140625 15.59375q8.4375 11.015625 8.4375 25.890625q0 11.71875 -5.453125 22.796875q-5.4375 11.078125 -14.875 17.703125q-9.4375 6.609375 -23.265625 8.140625q-8.671875 0.9375 -41.828125 1.171875l-58.484375 0l0 -171.79688zm34.6875 28.59375l0 39.71875l22.734375 0q20.28125 0 25.203125 -0.578125q8.90625 -1.0625 14.0 -6.15625q5.09375 -5.09375 5.09375 -13.421875q0 -7.96875 -4.390625 -12.9375q-4.390625 -4.984375 -13.0625 -6.046875q-5.15625 -0.578125 -29.65625 -0.578125l-19.921875 0zm0 68.3125l0 45.9375l32.109375 0q18.75 0 23.796875 -1.046875q7.734375 -1.40625 12.59375 -6.859375q4.859375 -5.453125 4.859375 -14.59375q0 -7.734375 -3.75 -13.125q-3.75 -5.390625 -10.84375 -7.84375q-7.078125 -2.46875 -30.75 -2.46875l-28.015625 0zm138.28906 -96.90625l34.6875 0l0 93.046875q0 22.140625 1.28125 28.703125q2.234375 10.546875 10.609375 16.9375q8.375 6.390625 22.90625 6.390625q14.765625 0 22.265625 -6.03125q7.5 -6.046875 9.015625 -14.828125q1.53125 -8.796875 1.53125 -29.1875l0 -95.03125l34.6875 0l0 90.234375q0 30.9375 -2.8125 43.71875q-2.8125 12.765625 -10.375 21.5625q-7.546875 8.78125 -20.203125 14.0q-12.65625 5.21875 -33.046875 5.21875q-24.609375 0 -37.328125 -5.6875q-12.71875 -5.6875 -20.109375 -14.765625q-7.375 -9.09375 -9.71875 -19.046875q-3.390625 -14.765625 -3.390625 -43.59375l0 -91.640625z" fill-rule="nonzero"/></g></svg>